<svg width="440" height="268" viewBox="0 0 440 268" xmlns="http://www.w3.org/2000/svg" role="img" aria-label="Vedanshu7 top languages">
  <text x="24" y="34" font-family="'Segoe UI', -apple-system, Ubuntu, sans-serif" font-size="18" font-weight="700" fill="#58a6ff">Top Languages</text>
  <line x1="24" y1="46" x2="416" y2="46" stroke="#58a6ff" stroke-opacity="0.35" stroke-width="1"/>
  <text x="24" y="78" font-family="'Segoe UI', -apple-system, Ubuntu, sans-serif" font-size="13" fill="#58a6ff">Rich Text Format</text>
  <rect x="170" y="67" width="200" height="10" rx="5" fill="#8b949e" fill-opacity="0.25"/>
  <rect x="170" y="67" width="89.1" height="10" rx="5" fill="#58a6ff"/>
  <text x="416" y="78" text-anchor="end" font-family="'SFMono-Regular', Consolas, monospace" font-size="13" fill="#58a6ff">44.5%</text>
  <text x="24" y="104" font-family="'Segoe UI', -apple-system, Ubuntu, sans-serif" font-size="13" fill="#58a6ff">JavaScript</text>
  <rect x="170" y="93" width="200" height="10" rx="5" fill="#8b949e" fill-opacity="0.25"/>
  <rect x="170" y="93" width="51.7" height="10" rx="5" fill="#f1e05a"/>
  <text x="416" y="104" text-anchor="end" font-family="'SFMono-Regular', Consolas, monospace" font-size="13" fill="#58a6ff">25.8%</text>
  <text x="24" y="130" font-family="'Segoe UI', -apple-system, Ubuntu, sans-serif" font-size="13" fill="#58a6ff">Python</text>
  <rect x="170" y="119" width="200" height="10" rx="5" fill="#8b949e" fill-opacity="0.25"/>
  <rect x="170" y="119" width="26.1" height="10" rx="5" fill="#3572A5"/>
  <text x="416" y="130" text-anchor="end" font-family="'SFMono-Regular', Consolas, monospace" font-size="13" fill="#58a6ff">13.0%</text>
  <text x="24" y="156" font-family="'Segoe UI', -apple-system, Ubuntu, sans-serif" font-size="13" fill="#58a6ff">CSS</text>
  <rect x="170" y="145" width="200" height="10" rx="5" fill="#8b949e" fill-opacity="0.25"/>
  <rect x="170" y="145" width="11.8" height="10" rx="5" fill="#663399"/>
  <text x="416" y="156" text-anchor="end" font-family="'SFMono-Regular', Consolas, monospace" font-size="13" fill="#58a6ff">5.9%</text>
  <text x="24" y="182" font-family="'Segoe UI', -apple-system, Ubuntu, sans-serif" font-size="13" fill="#58a6ff">C#</text>
  <rect x="170" y="171" width="200" height="10" rx="5" fill="#8b949e" fill-opacity="0.25"/>
  <rect x="170" y="171" width="7.3" height="10" rx="5" fill="#178600"/>
  <text x="416" y="182" text-anchor="end" font-family="'SFMono-Regular', Consolas, monospace" font-size="13" fill="#58a6ff">3.6%</text>
  <text x="24" y="208" font-family="'Segoe UI', -apple-system, Ubuntu, sans-serif" font-size="13" fill="#58a6ff">HTML</text>
  <rect x="170" y="197" width="200" height="10" rx="5" fill="#8b949e" fill-opacity="0.25"/>
  <rect x="170" y="197" width="5.1" height="10" rx="5" fill="#e34c26"/>
  <text x="416" y="208" text-anchor="end" font-family="'SFMono-Regular', Consolas, monospace" font-size="13" fill="#58a6ff">2.5%</text>
  <text x="24" y="234" font-family="'Segoe UI', -apple-system, Ubuntu, sans-serif" font-size="13" fill="#58a6ff">Go</text>
  <rect x="170" y="223" width="200" height="10" rx="5" fill="#8b949e" fill-opacity="0.25"/>
  <rect x="170" y="223" width="2.8" height="10" rx="5" fill="#00ADD8"/>
  <text x="416" y="234" text-anchor="end" font-family="'SFMono-Regular', Consolas, monospace" font-size="13" fill="#58a6ff">1.4%</text>
  <text x="24" y="260" font-family="'Segoe UI', -apple-system, Ubuntu, sans-serif" font-size="13" fill="#58a6ff">Jupyter Notebook</text>
  <rect x="170" y="249" width="200" height="10" rx="5" fill="#8b949e" fill-opacity="0.25"/>
  <rect x="170" y="249" width="2.0" height="10" rx="5" fill="#DA5B0B"/>
  <text x="416" y="260" text-anchor="end" font-family="'SFMono-Regular', Consolas, monospace" font-size="13" fill="#58a6ff">0.6%</text>
</svg>
